<svg xmlns="http://www.w3.org/2000/svg" viewBox="0 0 320 64" fill="#000"><rect x="0" y="0" width="11" height="64" rx="5.5"/><rect x="28.92" y="0" width="11" height="64" rx="5.5"/><rect x="64" y="23.04" width="11" height="40.96" rx="5.5"/><path d="M 34.42 23.04 a 17.54 17.54 0 0 1 35.08 0" fill="none" stroke="#000" stroke-width="11"/><rect x="106.62" y="0" width="11" height="64" rx="5.5"/><rect x="92.92" y="14.08" width="38.4" height="11" rx="5.5"/><polygon points="161.56,0 184.44,0 172.12,64 149.24,64"/><rect x="202.36" y="0" width="11" height="64" rx="5.5"/><rect x="244.98000000000002" y="0" width="11" height="64" rx="5.5"/><rect x="231.28000000000003" y="14.08" width="38.4" height="11" rx="5.5"/><path d="M 287.6 0 a 32 32 0 0 1 0 64 Z"/></svg>